<svg width="1619" height="1076" viewBox="0 0 1619 1076" fill="none" xmlns="http://www.w3.org/2000/svg">
<ellipse cx="134" cy="185" rx="134" ry="135" fill="url(#paint0_linear_0_1)"/>
<ellipse cx="134" cy="185" rx="134" ry="135" fill="url(#paint1_linear_0_1)"/>
<ellipse cx="577" cy="516.5" rx="199" ry="196.5" fill="url(#paint2_linear_0_1)"/>
<ellipse cx="851" cy="836" rx="143" ry="136" fill="url(#paint3_linear_0_1)"/>
<ellipse cx="1300" cy="168.5" rx="177" ry="168.5" fill="url(#paint4_linear_0_1)"/>
<ellipse cx="1500.5" cy="1076" rx="155.5" ry="156" fill="url(#paint5_linear_0_1)" fill-opacity="0.9"/>
<ellipse cx="230" cy="1100.5" rx="175" ry="171.5" fill="url(#paint6_linear_0_1)"/>
<ellipse cx="166.5" cy="746" rx="137.5" ry="139" fill="url(#paint7_linear_0_1)"/>
<ellipse cx="1344.5" cy="742" rx="137.5" ry="139" fill="url(#paint8_linear_0_1)"/>
<ellipse cx="876.5" cy="259" rx="100.5" ry="99" fill="url(#paint9_linear_0_1)"/>
<ellipse cx="935.5" cy="430" rx="58.5" ry="58" fill="url(#paint10_linear_0_1)"/>
<defs>
<linearGradient id="paint0_linear_0_1" x1="134" y1="50" x2="134" y2="320" gradientUnits="userSpaceOnUse">
<stop stop-color="#5F087E"/>
<stop offset="1" stop-color="#7040FB"/>
</linearGradient>
<linearGradient id="paint1_linear_0_1" x1="134" y1="50" x2="134" y2="320" gradientUnits="userSpaceOnUse">
<stop stop-color="#5F087E"/>
<stop offset="1" stop-color="#7040FB"/>
</linearGradient>
<linearGradient id="paint2_linear_0_1" x1="577" y1="320" x2="577" y2="713" gradientUnits="userSpaceOnUse">
<stop stop-color="#24008B"/>
<stop offset="1" stop-color="#B640FF"/>
</linearGradient>
<linearGradient id="paint3_linear_0_1" x1="851" y1="700" x2="851" y2="972" gradientUnits="userSpaceOnUse">
<stop stop-color="#5F087E"/>
<stop offset="1" stop-color="#7040FB"/>
</linearGradient>
<linearGradient id="paint4_linear_0_1" x1="1300" y1="0" x2="1300" y2="337" gradientUnits="userSpaceOnUse">
<stop stop-color="#5F087E"/>
<stop offset="1" stop-color="#7040FB"/>
</linearGradient>
<linearGradient id="paint5_linear_0_1" x1="1500.5" y1="920" x2="1500.5" y2="1232" gradientUnits="userSpaceOnUse">
<stop stop-color="#26087E"/>
<stop offset="1" stop-color="#7040FB"/>
</linearGradient>
<linearGradient id="paint6_linear_0_1" x1="230" y1="929" x2="230" y2="1272" gradientUnits="userSpaceOnUse">
<stop stop-color="#5F087E"/>
<stop offset="1" stop-color="#7040FB"/>
</linearGradient>
<linearGradient id="paint7_linear_0_1" x1="166.5" y1="607" x2="166.5" y2="885" gradientUnits="userSpaceOnUse">
<stop stop-color="#5F087E"/>
<stop offset="1" stop-color="#7040FB"/>
</linearGradient>
<linearGradient id="paint8_linear_0_1" x1="1344.5" y1="603" x2="1344.5" y2="881" gradientUnits="userSpaceOnUse">
<stop stop-color="#5F087E"/>
<stop offset="1" stop-color="#7040FB"/>
</linearGradient>
<linearGradient id="paint9_linear_0_1" x1="876.5" y1="160" x2="876.5" y2="358" gradientUnits="userSpaceOnUse">
<stop stop-color="#410ED5"/>
<stop offset="0.0001" stop-color="#5F087E"/>
<stop offset="1" stop-color="#571FFA"/>
</linearGradient>
<linearGradient id="paint10_linear_0_1" x1="935.5" y1="372" x2="935.5" y2="488" gradientUnits="userSpaceOnUse">
<stop stop-color="#5F087E"/>
<stop offset="1" stop-color="#8156FF"/>
</linearGradient>
</defs>
</svg>
