<svg width="34" height="33" viewBox="0 0 34 33" fill="none" xmlns="http://www.w3.org/2000/svg">
<path d="M17.1591 32.564C14.8561 32.564 12.7019 32.1802 10.6966 31.4125C8.7069 30.6292 6.95223 29.5247 5.43257 28.099C3.92857 26.6733 2.74573 24.9813 1.88407 23.023C1.03807 21.049 0.615066 18.8635 0.615066 16.4665C0.615066 14.0852 1.06157 11.9153 1.95457 9.957C2.86323 7.983 4.10873 6.28317 5.69107 4.8575C7.28907 3.43183 9.11423 2.33517 11.1666 1.5675C13.2189 0.799831 15.3966 0.415998 17.6996 0.415998C19.8929 0.415998 21.9531 0.776331 23.8801 1.497C25.8071 2.21766 27.5069 3.24383 28.9796 4.5755C30.4522 5.8915 31.6037 7.466 32.4341 9.299C33.2801 11.132 33.7031 13.1608 33.7031 15.3855C33.7031 17.2028 33.3427 18.7382 32.6221 19.9915C31.9171 21.2448 31.0241 22.1927 29.9431 22.835C28.8621 23.4773 27.7732 23.7985 26.6766 23.7985C25.3449 23.7985 24.3814 23.4852 23.7861 22.8585C23.1907 22.2318 22.8617 21.4563 22.7991 20.532C22.7051 21.1273 22.3761 21.7305 21.8121 22.3415C21.2637 22.9368 20.5196 23.446 19.5796 23.869C18.6552 24.2763 17.5821 24.48 16.3601 24.48C14.7307 24.48 13.3207 24.1275 12.1301 23.4225C10.9551 22.7018 10.0464 21.754 9.40407 20.579C8.76173 19.404 8.44057 18.1037 8.44057 16.678C8.44057 15.268 8.7539 13.9912 9.38057 12.8475C10.0072 11.7038 10.9002 10.7952 12.0596 10.1215C13.2346 9.43217 14.6289 9.0875 16.2426 9.0875C17.4019 9.0875 18.4046 9.29117 19.2506 9.6985C20.0966 10.0902 20.7781 10.5288 21.2951 11.0145C21.8121 11.4845 22.1254 11.837 22.2351 12.072V9.628H24.3501V19.2395C24.3501 19.4745 24.4049 19.8035 24.5146 20.2265C24.6242 20.6495 24.8436 21.0333 25.1726 21.378C25.5016 21.707 25.9951 21.8715 26.6531 21.8715C27.2954 21.8715 27.9769 21.6522 28.6976 21.2135C29.4339 20.7592 30.0684 20.0463 30.6011 19.075C31.1337 18.1037 31.4001 16.8582 31.4001 15.3385C31.4001 13.5368 31.0554 11.8683 30.3661 10.333C29.6767 8.782 28.7132 7.42683 27.4756 6.2675C26.2379 5.0925 24.7809 4.18383 23.1046 3.5415C21.4439 2.8835 19.6422 2.5545 17.6996 2.5545C15.7882 2.5545 13.9474 2.89917 12.1771 3.5885C10.4067 4.27783 8.8244 5.24917 7.43007 6.5025C6.0514 7.74017 4.95473 9.21283 4.14007 10.9205C3.3254 12.6125 2.91807 14.4612 2.91807 16.4665C2.91807 18.4562 3.3019 20.297 4.06957 21.989C4.83723 23.681 5.8869 25.1537 7.21857 26.407C8.55023 27.6447 10.0699 28.6082 11.7776 29.2975C13.4852 29.9868 15.2791 30.3315 17.1591 30.3315C18.7727 30.3315 20.2297 30.1122 21.5301 29.6735C22.8304 29.2192 23.9349 28.6787 24.8436 28.052C25.7522 27.4097 26.4181 26.7987 26.8411 26.219L28.7916 27.7935C28.2589 28.4672 27.4442 29.1722 26.3476 29.9085C25.2666 30.6448 23.9427 31.2715 22.3761 31.7885C20.8251 32.3055 19.0861 32.564 17.1591 32.564ZM16.6186 22.412C18.4046 22.412 19.7911 21.8323 20.7781 20.673C21.7651 19.5137 22.2586 18.1428 22.2586 16.5605C22.2586 15.4795 22.0079 14.5317 21.5066 13.717C21.0052 12.9023 20.3237 12.2678 19.4621 11.8135C18.6161 11.3435 17.6682 11.1085 16.6186 11.1085C14.9422 11.1085 13.5557 11.6412 12.4591 12.7065C11.3781 13.7718 10.8376 15.1113 10.8376 16.725C10.8376 18.3073 11.3546 19.6547 12.3886 20.767C13.4382 21.8637 14.8482 22.412 16.6186 22.412Z" fill="white"/>
</svg>
