<svg width="40" height="25" viewBox="0 0 40 25" fill="none" xmlns="http://www.w3.org/2000/svg">
<rect x="1" y="1.54663" width="38" height="22.4534" rx="4" stroke="white" stroke-width="2"/>
<path d="M10.1013 11.15L12.3638 10.4375L12.9013 12.0125L10.5013 12.8125L12.0638 14.6875L10.6138 15.725L9.21381 13.8875L7.82631 15.7375L6.35131 14.6875L7.95131 12.8125L5.53881 12.0125L6.05131 10.4375L8.33881 11.15L8.35131 8.7875H10.0888L10.1013 11.15ZM20.4773 11.15L22.7398 10.4375L23.2773 12.0125L20.8773 12.8125L22.4398 14.6875L20.9898 15.725L19.5898 13.8875L18.2023 15.7375L16.7273 14.6875L18.3273 12.8125L15.9148 12.0125L16.4273 10.4375L18.7148 11.15L18.7273 8.7875H20.4648L20.4773 11.15ZM30.8533 11.15L33.1158 10.4375L33.6533 12.0125L31.2533 12.8125L32.8158 14.6875L31.3658 15.725L29.9658 13.8875L28.5783 15.7375L27.1033 14.6875L28.7033 12.8125L26.2908 12.0125L26.8033 10.4375L29.0908 11.15L29.1033 8.7875H30.8408L30.8533 11.15Z" fill="white"/>
</svg>
