<svg width="777" height="775" viewBox="0 0 777 775" fill="none" xmlns="http://www.w3.org/2000/svg">
<path d="M689.609 575.844C683.959 638.617 628.4 686.073 565.516 681.841C502.631 677.608 456.234 623.29 461.884 560.517C467.534 497.744 523.093 450.287 585.977 454.52C648.862 458.752 695.259 513.071 689.609 575.844Z" fill="url(#paint0_linear_22_80)"/>
<path d="M665.054 572.733C665.057 617.376 629.315 647.906 585.222 640.923C541.129 633.941 505.381 592.09 505.377 547.447C505.374 502.804 541.116 472.275 585.209 479.257C629.302 486.24 665.05 528.09 665.054 572.733Z" fill="url(#paint1_radial_22_80)"/>
<path d="M658.295 602.591C666.94 653.153 634.558 680.812 585.969 664.369C537.379 647.926 490.982 593.608 482.337 543.045C473.692 492.483 506.074 464.824 554.663 481.267C603.252 497.71 649.65 552.028 658.295 602.591Z" fill="url(#paint2_radial_22_80)"/>
<path d="M658.123 602.62C662.439 627.863 656.508 647.348 643.481 658.474C630.455 669.601 610.283 672.413 586.025 664.204C561.767 655.995 538.045 638.326 519.306 616.389C500.568 594.451 486.825 568.259 482.509 543.016C478.193 517.772 484.124 498.288 497.15 487.161C510.177 476.035 530.349 473.223 554.607 481.432C578.865 489.641 602.587 507.31 621.325 529.247C640.064 551.185 653.807 577.377 658.123 602.62Z" stroke="url(#paint3_linear_22_80)" stroke-opacity="0.2" stroke-width="0.348891"/>
<mask id="path-5-inside-1_22_80" fill="white">
<path fill-rule="evenodd" clip-rule="evenodd" d="M637.553 615.335C637.977 609.93 637.573 603.906 636.248 597.341C628.563 559.26 592.816 517.409 556.404 503.866C550.127 501.531 544.24 500.19 538.835 499.764C536.452 463.565 562.015 445.307 599.564 458.622C640.326 473.077 679.778 519.264 687.683 561.785C694.964 600.954 672.935 623.348 637.553 615.335Z"/>
</mask>
<path fill-rule="evenodd" clip-rule="evenodd" d="M637.553 615.335C637.977 609.93 637.573 603.906 636.248 597.341C628.563 559.26 592.816 517.409 556.404 503.866C550.127 501.531 544.24 500.19 538.835 499.764C536.452 463.565 562.015 445.307 599.564 458.622C640.326 473.077 679.778 519.264 687.683 561.785C694.964 600.954 672.935 623.348 637.553 615.335Z" fill="url(#paint4_linear_22_80)"/>
<path d="M636.248 597.341L636.59 597.272L636.248 597.341ZM637.553 615.335L637.205 615.308L637.181 615.609L637.475 615.676L637.553 615.335ZM556.404 503.866L556.282 504.193L556.404 503.866ZM538.835 499.764L538.487 499.787L538.507 500.088L538.808 500.112L538.835 499.764ZM599.564 458.622L599.681 458.293L599.564 458.622ZM687.683 561.785L688.026 561.721L687.683 561.785ZM635.906 597.41C637.225 603.948 637.626 609.94 637.205 615.308L637.9 615.363C638.328 609.92 637.92 603.863 636.59 597.272L635.906 597.41ZM556.282 504.193C574.419 510.939 592.412 524.745 606.833 541.628C621.254 558.511 632.078 578.442 635.906 597.41L636.59 597.272C632.733 578.159 621.841 558.124 607.364 541.175C592.887 524.227 574.801 510.336 556.525 503.539L556.282 504.193ZM538.808 500.112C544.176 500.535 550.031 501.868 556.282 504.193L556.525 503.539C550.223 501.195 544.305 499.845 538.863 499.417L538.808 500.112ZM539.183 499.741C537.997 481.725 543.766 468.248 554.423 460.912C565.086 453.572 580.737 452.316 599.448 458.951L599.681 458.293C580.842 451.613 564.937 452.828 554.027 460.338C543.111 467.852 537.29 481.604 538.487 499.787L539.183 499.741ZM599.448 458.951C619.758 466.153 639.763 481.271 655.68 499.905C671.597 518.54 683.401 540.662 687.34 561.848L688.026 561.721C684.06 540.386 672.186 518.155 656.21 499.452C640.235 480.749 620.133 465.546 599.681 458.293L599.448 458.951ZM687.34 561.848C690.968 581.366 687.281 596.628 678.364 606.013C669.452 615.392 655.239 618.983 637.63 614.995L637.475 615.676C655.248 619.701 669.741 616.101 678.869 606.494C687.992 596.892 691.679 581.372 688.026 561.721L687.34 561.848Z" fill="url(#paint5_linear_22_80)" fill-opacity="0.3" mask="url(#path-5-inside-1_22_80)"/>
<g style="mix-blend-mode:lighten">
<ellipse cx="575.017" cy="508.87" rx="137.797" ry="137.281" transform="rotate(-130.503 575.017 508.87)" fill="url(#paint6_radial_22_80)" fill-opacity="0.6"/>
</g>
<g style="mix-blend-mode:lighten">
<path d="M411.139 386.467C492.445 317.017 613.589 325.377 681.72 405.14C749.851 484.903 739.171 605.864 657.864 675.314C576.557 744.764 455.413 736.404 387.282 656.641C319.151 576.878 329.832 455.917 411.139 386.467Z" fill="url(#paint7_radial_22_80)" fill-opacity="0.8"/>
</g>
<path d="M636.247 597.341C643.931 635.422 620.644 655.314 584.232 641.771C547.82 628.227 512.072 586.377 504.387 548.295C496.702 510.213 519.99 490.322 556.402 503.865C592.814 517.409 628.562 559.259 636.247 597.341Z" fill="url(#paint8_radial_22_80)"/>
<path d="M500.084 792.16C437.217 801.814 388.21 785.99 359.752 752.674C331.294 719.358 323.327 668.481 342.689 607.898C362.053 547.313 405.072 488.533 458.985 442.482C512.898 396.431 577.681 363.129 640.549 353.475C703.416 343.821 752.424 359.645 780.882 392.961C809.339 426.277 817.306 477.154 797.944 537.737C778.581 598.322 735.561 657.102 681.648 703.153C627.735 749.204 562.952 782.506 500.084 792.16Z" stroke="url(#paint9_linear_22_80)" stroke-width="0.581485"/>
<path d="M493.039 784.11C430.119 793.772 381.022 777.94 352.499 744.547C323.976 711.154 316.014 660.187 335.394 599.551C354.773 538.914 397.823 480.099 451.762 434.026C505.701 387.953 570.523 354.626 633.444 344.964C696.364 335.302 745.461 351.134 773.984 384.527C802.508 417.92 810.469 468.887 791.09 529.523C771.71 590.16 728.66 648.975 674.722 695.048C620.783 741.121 555.96 774.448 493.039 784.11Z" stroke="url(#paint10_linear_22_80)" stroke-width="0.116297"/>
<path d="M486.156 822.133C412.562 832.007 354.603 812.104 320.35 772.004C286.098 731.904 275.501 671.547 296.757 600.403C318.015 529.256 367.098 460.825 429.282 407.709C491.466 354.593 566.729 316.811 640.326 306.937C713.92 297.064 771.879 316.967 806.132 357.067C840.384 397.167 850.981 457.524 829.724 528.668C808.467 599.815 759.384 668.246 697.2 721.362C635.016 774.478 559.753 812.259 486.156 822.133Z" stroke="url(#paint11_linear_22_80)" stroke-width="0.581485"/>
<path d="M486.156 822.133C412.562 832.007 354.603 812.104 320.35 772.004C286.098 731.904 275.501 671.547 296.757 600.403C318.015 529.256 367.098 460.825 429.282 407.709C491.466 354.593 566.729 316.811 640.326 306.937C713.92 297.064 771.879 316.967 806.132 357.067C840.384 397.167 850.981 457.524 829.724 528.668C808.467 599.815 759.384 668.246 697.2 721.362C635.016 774.478 559.753 812.259 486.156 822.133Z" stroke="url(#paint12_linear_22_80)" stroke-opacity="0.2" stroke-width="0.581485"/>
<path d="M479.728 814.591C403.307 821.152 341.625 796.912 303.651 752.455C265.678 708 251.379 643.288 269.806 568.834C288.233 494.376 335.898 424.292 398.078 371.18C460.258 318.068 536.932 281.944 613.356 275.383C689.777 268.822 751.46 293.063 789.433 337.519C827.406 381.975 841.705 446.687 823.278 521.141C804.851 595.599 757.186 665.683 695.006 718.795C632.827 771.907 556.153 808.03 479.728 814.591Z" stroke="url(#paint13_linear_22_80)" stroke-width="0.581485"/>
<rect width="2.95894" height="2.95893" transform="matrix(0.0896497 -0.995973 0.997743 0.0671525 464.501 518.167)" fill="#00F0FF" fill-opacity="0.5"/>
<rect width="1.22007" height="1.22007" transform="matrix(0.0896497 -0.995973 0.997743 0.0671525 465.953 398.94)" fill="#00F0FF"/>
<rect width="1.60227" height="1.60227" transform="matrix(-0.0896497 0.995973 0.997743 0.0671525 707.334 373.782)" fill="#00F0FF"/>
<rect width="1.84521" height="1.84521" transform="matrix(0.0896497 -0.995973 0.997743 0.0671525 510.373 366.487)" fill="#00F0FF"/>
<rect width="1.09356" height="1.09356" transform="matrix(0.0896497 -0.995973 0.997743 0.0671525 515.38 393.286)" fill="#00F0FF"/>
<rect width="2.95894" height="2.95893" transform="matrix(0.0896497 -0.995973 0.997743 0.0671525 518.095 567.765)" fill="#00F0FF"/>
<rect width="2.95894" height="2.95893" transform="matrix(0.0896497 -0.995973 0.997743 0.0671525 431.469 621.253)" fill="#0500FF" fill-opacity="0.5"/>
<rect width="2.068" height="2.06799" transform="matrix(0.0896497 -0.995973 0.997743 0.0671525 408.536 530.721)" fill="#3DFFFB"/>
<rect width="3.84852" height="3.84852" transform="matrix(0.0896497 -0.995973 0.997743 0.0671525 650.188 659.831)" fill="#0500FF" fill-opacity="0.5"/>
<rect width="3.86162" height="3.86162" transform="matrix(-0.0896497 0.995973 0.997743 0.0671524 766.391 382.22)" fill="#0066FF" fill-opacity="0.5"/>
<rect width="4.10909" height="4.10909" transform="matrix(0.0896497 -0.995973 0.997743 0.0671524 754.689 735.625)" fill="#0500FF" fill-opacity="0.5"/>
<rect width="2.87532" height="2.87532" transform="matrix(0.0896427 -0.995974 0.997742 0.0671595 776.471 635.398)" fill="#0500FF" fill-opacity="0.5"/>
<rect width="3.51762" height="3.51762" transform="matrix(-0.956777 -0.274457 0.296859 -0.959753 692.817 501.071)" fill="#0066FF" fill-opacity="0.5"/>
<rect width="2.76347" height="2.74025" transform="matrix(-0.993559 -0.0668782 0.0900231 -1.0002 625.923 455.111)" fill="#00D1FF"/>
<rect width="3.30577" height="3.30577" transform="matrix(0.956772 0.274474 0.296842 -0.959758 509.436 516.646)" fill="#001AFF" fill-opacity="0.5"/>
<rect width="3.51762" height="3.51762" transform="matrix(-0.956772 -0.274474 0.296842 -0.959758 528.594 435.581)" fill="#0066FF" fill-opacity="0.5"/>
<rect width="3.51762" height="3.51762" transform="matrix(-0.956777 -0.274457 0.296859 -0.959753 765.376 470.805)" fill="#0066FF" fill-opacity="0.5"/>
<rect width="2.55389" height="2.53243" transform="matrix(-0.99356 -0.0668709 0.0900304 -1.0002 637.82 378.343)" fill="#0500FF" fill-opacity="0.5"/>
<rect width="2.46098" height="2.46098" transform="matrix(-0.956779 -0.27445 0.296866 -0.959751 724.111 548.945)" fill="#0500FF" fill-opacity="0.5"/>
<rect width="4.57985" height="4.57985" transform="matrix(-0.956772 -0.274474 0.296842 -0.959758 756.388 545.149)" fill="#0500FF" fill-opacity="0.5"/>
<rect width="1.96906" height="1.97228" transform="matrix(0.0897335 -0.996787 0.99693 0.0670873 489.589 521.095)" fill="#00FFF0" fill-opacity="0.6"/>
<rect width="2.21837" height="2.222" transform="matrix(0.0897232 -0.996787 0.996929 0.0670976 470.77 651.091)" fill="#00FFF0"/>
<rect width="2.44935" height="2.45335" transform="matrix(-0.0897232 0.996787 0.996929 0.0670976 397.961 496.765)" fill="#00FFF0"/>
<rect width="2.60631" height="2.61057" transform="matrix(0.0897232 -0.996787 0.996929 0.0670976 447.479 461.54)" fill="#00FFF0"/>
<rect width="2.60632" height="2.61058" transform="matrix(0.0897154 -0.996788 0.996928 0.0671054 637.547 561.404)" fill="#00FFF0" fill-opacity="0.5"/>
<rect width="1.42876" height="1.43109" transform="matrix(0.0897232 -0.996787 0.996929 0.0670976 569.204 593.293)" fill="#00FFF0" fill-opacity="0.5"/>
<rect width="2.60845" height="2.60845" transform="matrix(-0.503536 -0.851566 0.866013 -0.520873 521.247 681.899)" fill="#0500FF" fill-opacity="0.5"/>
<rect width="1.81968" height="1.82266" transform="matrix(0.0897232 -0.996787 0.996929 0.0670976 495.168 622.502)" fill="#00D1FF" fill-opacity="0.6"/>
<rect width="4.90607" height="4.91409" transform="matrix(0.0897232 -0.996787 0.996929 0.0670976 512.923 636.868)" fill="#6100FF" fill-opacity="0.5"/>
<g opacity="0.5">
<rect width="1.96906" height="1.97228" transform="matrix(0.0897229 -0.996788 0.996929 0.0670978 391.744 452.449)" fill="#00FFF0" fill-opacity="0.6"/>
<rect width="2.21837" height="2.22199" transform="matrix(0.0897321 -0.996787 0.99693 0.0670887 372.926 582.444)" fill="#00FFF0"/>
<rect width="2.44935" height="2.45335" transform="matrix(-0.0897229 0.996788 0.996929 0.0670978 300.117 428.12)" fill="#00FFF0"/>
<rect width="2.60631" height="2.61057" transform="matrix(0.0897152 -0.996788 0.996928 0.0671056 349.635 392.894)" fill="#00FFF0"/>
<rect width="2.60631" height="2.61057" transform="matrix(0.0897229 -0.996788 0.996929 0.0670978 539.704 492.757)" fill="#00FFF0" fill-opacity="0.5"/>
<rect width="1.42876" height="1.43109" transform="matrix(0.0897229 -0.996788 0.996929 0.0670978 471.36 524.647)" fill="#00FFF0" fill-opacity="0.5"/>
<rect width="2.60845" height="2.60845" transform="matrix(-0.503537 -0.851566 0.866013 -0.520872 423.405 613.252)" fill="#0500FF" fill-opacity="0.5"/>
<rect width="1.81968" height="1.82266" transform="matrix(0.0897229 -0.996788 0.996929 0.0670978 397.324 553.856)" fill="#00D1FF" fill-opacity="0.6"/>
<rect width="4.90607" height="4.91408" transform="matrix(0.0897188 -0.996788 0.996929 0.0671019 415.08 568.224)" fill="#6100FF" fill-opacity="0.5"/>
</g>
<path d="M630.279 652.132L626.984 634.033L644.345 640.117L647.64 658.216L630.279 652.132Z" fill="url(#paint14_linear_22_80)"/>
<path d="M644.344 640.119L626.983 634.035L612.521 667.299L644.344 640.119Z" fill="url(#paint15_linear_22_80)"/>
<path d="M644.345 640.122L647.661 658.215L612.522 667.302L644.345 640.122Z" fill="url(#paint16_linear_22_80)"/>
<path d="M503.405 498.586L501.325 487.166L512.28 491.005L514.359 502.425L503.405 498.586Z" fill="url(#paint17_linear_22_80)"/>
<path d="M512.283 491.004L501.326 487.164L492.2 508.156L512.283 491.004Z" fill="url(#paint18_linear_22_80)" fill-opacity="0.6"/>
<path d="M512.281 491.003L514.374 502.421L492.198 508.156L512.281 491.003Z" fill="url(#paint19_linear_22_80)"/>
<path d="M430.018 408.402L426.457 389.548L444.611 395.776L448.172 414.63L430.018 408.402Z" fill="url(#paint20_linear_22_80)"/>
<path d="M444.61 395.779L426.456 389.551L411.595 424.342L444.61 395.779Z" fill="url(#paint21_linear_22_80)" fill-opacity="0.6"/>
<path d="M444.61 395.779L448.193 414.628L411.595 424.343L444.61 395.779Z" fill="url(#paint22_linear_22_80)"/>
<path d="M521.408 598.174L520.201 606.864L526.594 614.154L534.497 613.251L531.249 603.461L521.408 598.174Z" fill="url(#paint23_linear_22_80)" fill-opacity="0.7"/>
<path d="M498.668 630.854L522.57 624.192L533.352 622.599L498.668 630.854Z" fill="url(#paint24_linear_22_80)" fill-opacity="0.8"/>
<path d="M498.668 630.855L510.408 610.267L512.171 598.305L498.668 630.855Z" fill="url(#paint25_linear_22_80)"/>
<path d="M512.168 598.307L510.409 610.274L520.2 606.864L521.407 598.172L512.168 598.307Z" fill="url(#paint26_linear_22_80)" fill-opacity="0.6"/>
<path d="M522.568 624.19L510.41 610.271L520.202 606.861L526.593 614.151L522.568 624.19Z" fill="url(#paint27_linear_22_80)" fill-opacity="0.6"/>
<path d="M522.567 624.195L533.351 622.599L534.497 613.249L526.593 614.152L522.567 624.195Z" fill="url(#paint28_linear_22_80)" fill-opacity="0.8"/>
<path d="M498.668 630.854L528.024 606.825L533.352 622.599L498.668 630.854Z" fill="url(#paint29_linear_22_80)"/>
<path d="M498.668 630.853L528.023 606.825L512.17 598.303L498.668 630.853Z" fill="url(#paint30_linear_22_80)"/>
<path d="M533.351 622.6L528.025 606.824L531.249 603.459L534.496 613.254L533.351 622.6Z" fill="url(#paint31_linear_22_80)" fill-opacity="0.6"/>
<path d="M512.166 598.308L528.023 606.826L531.249 603.46L521.404 598.173L512.166 598.308Z" fill="url(#paint32_linear_22_80)" fill-opacity="0.6"/>
<defs>
<linearGradient id="paint0_linear_22_80" x1="626.404" y1="465.536" x2="545.342" y2="596.637" gradientUnits="userSpaceOnUse">
<stop stop-color="white"/>
<stop offset="0.165772" stop-color="#71FFF6"/>
<stop offset="0.552083" stop-color="#4F75FF"/>
<stop offset="1" stop-color="#5E64FF" stop-opacity="0"/>
</linearGradient>
<radialGradient id="paint1_radial_22_80" cx="0" cy="0" r="1" gradientUnits="userSpaceOnUse" gradientTransform="translate(576.798 592.524) rotate(-77.3567) scale(101.956 120.948)">
<stop offset="0.40625" stop-color="#3330B1" stop-opacity="0.1"/>
<stop offset="0.678936" stop-color="#58FFFF" stop-opacity="0.5"/>
<stop offset="1" stop-color="white"/>
</radialGradient>
<radialGradient id="paint2_radial_22_80" cx="0" cy="0" r="1" gradientUnits="userSpaceOnUse" gradientTransform="translate(570.416 493.778) rotate(123.665) scale(130.59 219.444)">
<stop stop-color="white"/>
<stop offset="0.298196" stop-color="#5EF5FF"/>
<stop offset="0.538073" stop-color="#3432BD"/>
<stop offset="0.914407" stop-color="#171940"/>
</radialGradient>
<linearGradient id="paint3_linear_22_80" x1="566.542" y1="485.412" x2="536.389" y2="624.566" gradientUnits="userSpaceOnUse">
<stop stop-color="white"/>
<stop offset="1" stop-color="white" stop-opacity="0"/>
</linearGradient>
<linearGradient id="paint4_linear_22_80" x1="623.18" y1="480.181" x2="613.155" y2="577.397" gradientUnits="userSpaceOnUse">
<stop stop-color="white"/>
<stop offset="0.502014" stop-color="#4FFFF4" stop-opacity="0.1"/>
<stop offset="1" stop-color="#5ECFFF" stop-opacity="0.6"/>
</linearGradient>
<linearGradient id="paint5_linear_22_80" x1="614.374" y1="438.051" x2="633.069" y2="655.044" gradientUnits="userSpaceOnUse">
<stop stop-color="white"/>
<stop offset="1" stop-color="white" stop-opacity="0"/>
</linearGradient>
<radialGradient id="paint6_radial_22_80" cx="0" cy="0" r="1" gradientUnits="userSpaceOnUse" gradientTransform="translate(575.017 518.6) rotate(80.9804) scale(109.07 109.669)">
<stop offset="0.0729167" stop-color="white"/>
<stop offset="0.507801" stop-color="#C173FF" stop-opacity="0.9"/>
<stop offset="1" stop-color="#0E26FF" stop-opacity="0"/>
</radialGradient>
<radialGradient id="paint7_radial_22_80" cx="0" cy="0" r="1" gradientUnits="userSpaceOnUse" gradientTransform="translate(544.937 521.978) rotate(-49.3214) scale(153.743 151.25)">
<stop offset="0.0729167" stop-color="#8785FF"/>
<stop offset="1" stop-color="#3E0EFF" stop-opacity="0"/>
</radialGradient>
<radialGradient id="paint8_radial_22_80" cx="0" cy="0" r="1" gradientUnits="userSpaceOnUse" gradientTransform="translate(508.277 644.173) rotate(-55.3652) scale(133.455 230.267)">
<stop stop-color="#3330B1"/>
<stop offset="1" stop-color="#0A0926"/>
</radialGradient>
<linearGradient id="paint9_linear_22_80" x1="405.198" y1="379.509" x2="584.688" y2="589.641" gradientUnits="userSpaceOnUse">
<stop stop-color="#8FBCFF" stop-opacity="0.6"/>
<stop offset="1" stop-color="#8FBCFF" stop-opacity="0"/>
</linearGradient>
<linearGradient id="paint10_linear_22_80" x1="442.033" y1="422.636" x2="674.759" y2="695.093" gradientUnits="userSpaceOnUse">
<stop stop-color="#8FBCFF" stop-opacity="0.6"/>
<stop offset="1" stop-color="#8FBCFF" stop-opacity="0"/>
</linearGradient>
<linearGradient id="paint11_linear_22_80" x1="356.602" y1="322.618" x2="602.634" y2="610.654" gradientUnits="userSpaceOnUse">
<stop stop-color="white" stop-opacity="0.6"/>
<stop offset="0.34375" stop-color="#8FBCFF" stop-opacity="0.6"/>
<stop offset="1" stop-color="#8FBCFF" stop-opacity="0"/>
</linearGradient>
<linearGradient id="paint12_linear_22_80" x1="584.34" y1="322.781" x2="608.681" y2="423.965" gradientUnits="userSpaceOnUse">
<stop stop-color="#FF48D7"/>
<stop offset="0.234164" stop-color="white" stop-opacity="0.765836"/>
<stop offset="1" stop-color="#FF48D7" stop-opacity="0"/>
</linearGradient>
<linearGradient id="paint13_linear_22_80" x1="384.974" y1="355.835" x2="563.097" y2="564.367" gradientUnits="userSpaceOnUse">
<stop stop-color="#8FBCFF" stop-opacity="0.6"/>
<stop offset="1" stop-color="#8FBCFF" stop-opacity="0"/>
</linearGradient>
<linearGradient id="paint14_linear_22_80" x1="625.964" y1="645.361" x2="648.614" y2="647.399" gradientUnits="userSpaceOnUse">
<stop stop-color="#6083FF"/>
<stop offset="1" stop-color="#0C1E5E" stop-opacity="0"/>
</linearGradient>
<linearGradient id="paint15_linear_22_80" x1="631.492" y1="631.622" x2="612.984" y2="667.476" gradientUnits="userSpaceOnUse">
<stop offset="0.170794" stop-color="#3D3BA9"/>
<stop offset="0.537799" stop-color="#FF7BE2" stop-opacity="0.8"/>
<stop offset="0.791667" stop-color="white"/>
</linearGradient>
<linearGradient id="paint16_linear_22_80" x1="612.644" y1="667.445" x2="646.377" y2="656.733" gradientUnits="userSpaceOnUse">
<stop stop-color="#3DDCFF"/>
<stop offset="0.427083" stop-color="#9D50FF" stop-opacity="0"/>
<stop offset="0.977116" stop-color="#3DDCFF"/>
</linearGradient>
<linearGradient id="paint17_linear_22_80" x1="500.682" y1="494.313" x2="514.974" y2="495.6" gradientUnits="userSpaceOnUse">
<stop stop-color="#6083FF"/>
<stop offset="1" stop-color="#0C1E5E" stop-opacity="0"/>
</linearGradient>
<linearGradient id="paint18_linear_22_80" x1="504.172" y1="485.641" x2="492.492" y2="508.268" gradientUnits="userSpaceOnUse">
<stop offset="0.170794" stop-color="#3D3BA9"/>
<stop offset="0.537799" stop-color="#FF7BE2" stop-opacity="0.8"/>
<stop offset="0.791667" stop-color="white"/>
</linearGradient>
<linearGradient id="paint19_linear_22_80" x1="492.275" y1="508.246" x2="513.563" y2="501.486" gradientUnits="userSpaceOnUse">
<stop stop-color="#3DDCFF"/>
<stop offset="0.427083" stop-color="#9D50FF" stop-opacity="0.5"/>
<stop offset="0.977116" stop-color="#3DDCFF"/>
</linearGradient>
<linearGradient id="paint20_linear_22_80" x1="425.47" y1="401.369" x2="449.114" y2="403.342" gradientUnits="userSpaceOnUse">
<stop stop-color="#6083FF"/>
<stop offset="1" stop-color="#0C1E5E" stop-opacity="0"/>
</linearGradient>
<linearGradient id="paint21_linear_22_80" x1="431.144" y1="387.003" x2="412.087" y2="424.528" gradientUnits="userSpaceOnUse">
<stop offset="0.170794" stop-color="#3D3BA9"/>
<stop offset="0.537799" stop-color="#FF7BE2" stop-opacity="0.8"/>
<stop offset="0.791667" stop-color="white"/>
</linearGradient>
<linearGradient id="paint22_linear_22_80" x1="411.723" y1="424.491" x2="446.841" y2="413.083" gradientUnits="userSpaceOnUse">
<stop stop-color="#3DDCFF"/>
<stop offset="0.427083" stop-color="#9D50FF" stop-opacity="0.5"/>
<stop offset="0.977116" stop-color="#3DDCFF"/>
</linearGradient>
<linearGradient id="paint23_linear_22_80" x1="517.162" y1="604.085" x2="532.481" y2="605.19" gradientUnits="userSpaceOnUse">
<stop stop-color="#6587FF"/>
<stop offset="1" stop-color="#D8E0FF" stop-opacity="0.9"/>
</linearGradient>
<linearGradient id="paint24_linear_22_80" x1="520.52" y1="612.189" x2="531.924" y2="632.162" gradientUnits="userSpaceOnUse">
<stop offset="0.135417" stop-color="white"/>
<stop offset="0.28125" stop-color="#89F8FF" stop-opacity="0.934673"/>
<stop offset="0.645833" stop-color="#71F6FF" stop-opacity="0.921354"/>
<stop offset="1" stop-color="#4A72FF" stop-opacity="0.9"/>
</linearGradient>
<linearGradient id="paint25_linear_22_80" x1="499.013" y1="607.876" x2="509.351" y2="625.107" gradientUnits="userSpaceOnUse">
<stop offset="0.170794" stop-color="#3D3BA9"/>
<stop offset="0.537799" stop-color="#FF7BE2" stop-opacity="0.8"/>
<stop offset="0.791667" stop-color="white"/>
</linearGradient>
<linearGradient id="paint26_linear_22_80" x1="516.444" y1="594.655" x2="521.732" y2="606.466" gradientUnits="userSpaceOnUse">
<stop offset="0.135417" stop-color="white"/>
<stop offset="0.28125" stop-color="#89F8FF" stop-opacity="0.934673"/>
<stop offset="0.645833" stop-color="#71F6FF" stop-opacity="0.921354"/>
<stop offset="1" stop-color="#4A72FF" stop-opacity="0.9"/>
</linearGradient>
<linearGradient id="paint27_linear_22_80" x1="514.283" y1="606.963" x2="509.911" y2="619.869" gradientUnits="userSpaceOnUse">
<stop offset="0.135417" stop-color="white"/>
<stop offset="0.28125" stop-color="#89F8FF" stop-opacity="0.934673"/>
<stop offset="0.645833" stop-color="#71F6FF" stop-opacity="0.921354"/>
<stop offset="1" stop-color="#4A72FF" stop-opacity="0.9"/>
</linearGradient>
<linearGradient id="paint28_linear_22_80" x1="532.875" y1="613.502" x2="537.605" y2="622.491" gradientUnits="userSpaceOnUse">
<stop offset="0.135417" stop-color="white"/>
<stop offset="0.28125" stop-color="#89F8FF" stop-opacity="0.934673"/>
<stop offset="0.645833" stop-color="#71F6FF" stop-opacity="0.921354"/>
<stop offset="1" stop-color="#4A72FF" stop-opacity="0.9"/>
</linearGradient>
<linearGradient id="paint29_linear_22_80" x1="509.384" y1="643.17" x2="514.903" y2="611.187" gradientUnits="userSpaceOnUse">
<stop stop-color="#3DDCFF"/>
<stop offset="0.427083" stop-color="#9D50FF" stop-opacity="0"/>
<stop offset="0.977116" stop-color="#3DDCFF"/>
</linearGradient>
<linearGradient id="paint30_linear_22_80" x1="524.181" y1="594.563" x2="522.407" y2="639.891" gradientUnits="userSpaceOnUse">
<stop offset="0.170794" stop-color="#3D3BA9"/>
<stop offset="0.537799" stop-color="#FF7BE2" stop-opacity="0.8"/>
<stop offset="0.791667" stop-color="white"/>
</linearGradient>
<linearGradient id="paint31_linear_22_80" x1="532.457" y1="603.039" x2="535.703" y2="621.9" gradientUnits="userSpaceOnUse">
<stop offset="0.135417" stop-color="white"/>
<stop offset="0.28125" stop-color="#89F8FF" stop-opacity="0.934673"/>
<stop offset="0.645833" stop-color="#71F6FF" stop-opacity="0.921354"/>
<stop offset="1" stop-color="#4A72FF" stop-opacity="0.9"/>
</linearGradient>
<linearGradient id="paint32_linear_22_80" x1="517.614" y1="604.686" x2="527.7" y2="596.071" gradientUnits="userSpaceOnUse">
<stop stop-color="#3E5ABE"/>
<stop offset="1" stop-color="#3E5ABE" stop-opacity="0"/>
</linearGradient>
</defs>
</svg>
